<svg xmlns="http://www.w3.org/2000/svg" xmlns:xlink="http://www.w3.org/1999/xlink" width="17.3256cm" height="16.5cm">
<style type="text/css" >
	<![CDATA[
	/* Text styles */
	.label {
		font-family: Arial;
		font-size: 10pt;
		font-weight: normal;
	}

	.entity {
		font-family: Arial;
		font-size: 12pt;
		font-weight: bold;
	}

	.port {
		font-family: Arial;
		font-size: 12pt;
		font-weight: normal;
	}

	.vector {
		font-family: Arial;
		font-size: 10pt;
		font-weight: normal;
	}

	.generics {
		font-family: Arial;
		font-size: 10pt;
		font-weight: normal;
	}

	/* Text alignment */
	.right {
		dominant-baseline: central;
		text-anchor: end;
	}

	.left {
		dominant-baseline: central;
		text-anchor: start;
	}

	.center {
		dominant-baseline: central;
		text-anchor: middle;
	}

	/* Shape styles */
	.entityBox {
		stroke-width: 0.05cm;
		stroke: #000000;
		fill: #FFFFFF;
	}

	.portBox {
		stroke-width: 0.00cm;
		stroke: #FFF;
		fill: #FFFFFF;
	}

	.labelBox {
		stroke-width: 0.00cm;
		stroke: #000000;
		fill: #FFFFFF;
	}

	.vectorLength {
		stroke-width: 0.00cm;
		fill: #FFFFFF;
	}

	.genericsBox {
		stroke-width: 0.02cm;
		stroke: #BFBFBF;
		fill: #F2F2F2;
	}

	.connector {
		stroke-width: 0.025cm;
		stroke: #000000;
		fill: #FFFFFF;
	}

	]]>
</style>
<g>
<rect class="genericsBox" x="11.6376cm" y="0.5cm" width="5.18795cm" height="0.5cm" />
<text class="generics" x="11.7626cm" y="0.875cm" >SCL_FALLING_DELAY = 5</text>
</g>
<g>
<rect class="labelBox" x="1.5cm" y="0cm" width="10.1376cm" height="1cm" />
<text class="label center" x="6.56882cm" y="0.5cm" ></text>
<rect class="entityBox" x="1.475cm" y="0.975cm" width="10.1876cm" height="14.05cm" />
<text class="entity center" x="6.56882cm" y="1.5cm" >slave</text>
<rect class="portBox" x="1.5cm" y="2cm" width="5.06882cm" height="1cm" />
<text class="port left" x="1.75cm" y="2.5cm" >address_i</text>
<line class="connector" x1="1.5cm" y1="2.5cm" x2="0.5cm" y2="2.5cm" />
<line class="connector" x1="0.75cm" y1="2.75cm" x2="1.25cm" y2="2.25cm" />
<text class="vector right" x="1.1cm" y="2.1cm" >7</text>
<rect class="portBox" x="1.5cm" y="3cm" width="5.06882cm" height="1cm" />
<text class="port left" x="1.75cm" y="3.5cm" >generate_ack_i</text>
<line class="connector" x1="1.5cm" y1="3.5cm" x2="0.5cm" y2="3.5cm" />
<rect class="portBox" x="1.5cm" y="4cm" width="5.06882cm" height="1cm" />
<text class="port left" x="1.75cm" y="4.5cm" >expect_ack_i</text>
<line class="connector" x1="1.5cm" y1="4.5cm" x2="0.5cm" y2="4.5cm" />
<rect class="portBox" x="6.56882cm" y="2cm" width="5.06882cm" height="1cm" />
<text class="port right" x="11.3876cm" y="2.5cm" >rx_valid_o</text>
<line class="connector" x1="11.6376cm" y1="2.5cm" x2="12.6376cm" y2="2.5cm" />
<rect class="portBox" x="6.56882cm" y="3cm" width="5.06882cm" height="1cm" />
<text class="port right" x="11.3876cm" y="3.5cm" >rx_data_o</text>
<line class="connector" x1="11.6376cm" y1="3.5cm" x2="12.6376cm" y2="3.5cm" />
<line class="connector" x1="11.8876cm" y1="3.75cm" x2="12.3876cm" y2="3.25cm" />
<text class="vector left" x="12.0376cm" y="3.1cm" >8</text>
<rect class="portBox" x="1.5cm" y="5cm" width="5.06882cm" height="1cm" />
<text class="port left" x="1.75cm" y="5.5cm" >rx_confirm_i</text>
<line class="connector" x1="1.5cm" y1="5.5cm" x2="0.5cm" y2="5.5cm" />
<rect class="portBox" x="1.5cm" y="6cm" width="5.06882cm" height="1cm" />
<text class="port left" x="1.75cm" y="6.5cm" >rx_stretch_i</text>
<line class="connector" x1="1.5cm" y1="6.5cm" x2="0.5cm" y2="6.5cm" />
<rect class="portBox" x="6.56882cm" y="4cm" width="5.06882cm" height="1cm" />
<text class="port right" x="11.3876cm" y="4.5cm" >tx_ready_o</text>
<line class="connector" x1="11.6376cm" y1="4.5cm" x2="12.6376cm" y2="4.5cm" />
<rect class="portBox" x="1.5cm" y="7cm" width="5.06882cm" height="1cm" />
<text class="port left" x="1.75cm" y="7.5cm" >tx_valid_i</text>
<line class="connector" x1="1.5cm" y1="7.5cm" x2="0.5cm" y2="7.5cm" />
<rect class="portBox" x="1.5cm" y="8cm" width="5.06882cm" height="1cm" />
<text class="port left" x="1.75cm" y="8.5cm" >tx_data_i</text>
<line class="connector" x1="1.5cm" y1="8.5cm" x2="0.5cm" y2="8.5cm" />
<line class="connector" x1="0.75cm" y1="8.75cm" x2="1.25cm" y2="8.25cm" />
<text class="vector right" x="1.1cm" y="8.1cm" >8</text>
<rect class="portBox" x="1.5cm" y="9cm" width="5.06882cm" height="1cm" />
<text class="port left" x="1.75cm" y="9.5cm" >tx_stretch_i</text>
<line class="connector" x1="1.5cm" y1="9.5cm" x2="0.5cm" y2="9.5cm" />
<rect class="portBox" x="1.5cm" y="10cm" width="5.06882cm" height="1cm" />
<text class="port left" x="1.75cm" y="10.5cm" >tx_clear_buffer_i</text>
<line class="connector" x1="1.5cm" y1="10.5cm" x2="0.5cm" y2="10.5cm" />
<rect class="portBox" x="6.56882cm" y="5cm" width="5.06882cm" height="1cm" />
<text class="port right" x="11.3876cm" y="5.5cm" >err_noack_o</text>
<line class="connector" x1="11.6376cm" y1="5.5cm" x2="12.6376cm" y2="5.5cm" />
<rect class="portBox" x="6.56882cm" y="6cm" width="5.06882cm" height="1cm" />
<text class="port right" x="11.3876cm" y="6.5cm" >err_sda_o</text>
<line class="connector" x1="11.6376cm" y1="6.5cm" x2="12.6376cm" y2="6.5cm" />
<rect class="portBox" x="6.56882cm" y="7cm" width="5.06882cm" height="1cm" />
<text class="port right" x="11.3876cm" y="7.5cm" >rw_o</text>
<line class="connector" x1="11.6376cm" y1="7.5cm" x2="12.6376cm" y2="7.5cm" />
<rect class="portBox" x="6.56882cm" y="8cm" width="5.06882cm" height="1cm" />
<text class="port right" x="11.3876cm" y="8.5cm" >dev_busy_o</text>
<line class="connector" x1="11.6376cm" y1="8.5cm" x2="12.6376cm" y2="8.5cm" />
<rect class="portBox" x="6.56882cm" y="9cm" width="5.06882cm" height="1cm" />
<text class="port right" x="11.3876cm" y="9.5cm" >bus_busy_o</text>
<line class="connector" x1="11.6376cm" y1="9.5cm" x2="12.6376cm" y2="9.5cm" />
<rect class="portBox" x="6.56882cm" y="10cm" width="5.06882cm" height="1cm" />
<text class="port right" x="11.3876cm" y="10.5cm" >waiting_o</text>
<line class="connector" x1="11.6376cm" y1="10.5cm" x2="12.6376cm" y2="10.5cm" />
<rect class="portBox" x="1.5cm" y="11cm" width="5.06882cm" height="1cm" />
<text class="port left" x="1.75cm" y="11.5cm" >sda_i</text>
<line class="connector" x1="1.5cm" y1="11.5cm" x2="0.5cm" y2="11.5cm" />
<rect class="portBox" x="1.5cm" y="12cm" width="5.06882cm" height="1cm" />
<text class="port left" x="1.75cm" y="12.5cm" >scl_i</text>
<line class="connector" x1="1.5cm" y1="12.5cm" x2="0.5cm" y2="12.5cm" />
<rect class="portBox" x="6.56882cm" y="11cm" width="5.06882cm" height="1cm" />
<text class="port right" x="11.3876cm" y="11.5cm" >sda_enable_o</text>
<line class="connector" x1="11.6376cm" y1="11.5cm" x2="12.6376cm" y2="11.5cm" />
<rect class="portBox" x="6.56882cm" y="12cm" width="5.06882cm" height="1cm" />
<text class="port right" x="11.3876cm" y="12.5cm" >scl_enable_o</text>
<line class="connector" x1="11.6376cm" y1="12.5cm" x2="12.6376cm" y2="12.5cm" />
<rect class="portBox" x="1.5cm" y="14cm" width="10.1376cm" height="1cm" />
<text class="port center" x="6.56882cm" y="14.5cm" >rst_in</text>
<line class="connector" x1="6.56882cm" y1="15cm" x2="6.56882cm" y2="16cm" />
<circle class="connector" cx="6.56882cm" cy="15.175cm" r="0.125cm" />
<rect class="portBox" x="1.5cm" y="13cm" width="5.06882cm" height="1cm" />
<text class="port left" x="1.75cm" y="13.5cm" >clk_i</text>
<line class="connector" x1="0.5cm" y1="13.5cm" x2="1.5cm" y2="13.5cm" />
<line class="connector" x1="1.5cm" y1="13.65cm" x2="1.7cm" y2="13.5cm" />
<line class="connector" x1="1.5cm" y1="13.35cm" x2="1.7cm" y2="13.5cm" />
</g>
</svg>
